<svg width="294" height="388" viewBox="0 0 294 388" fill="none" xmlns="http://www.w3.org/2000/svg">
<path d="M27.4149 163.351C9.51592 122.034 25.1744 36.4821 118.043 6.79057C212.585 -23.4042 289.228 53.2025 293.697 116.385C298.165 179.568 251.744 237.164 251.744 237.164V341.45L96.7829 388V303.203C96.7829 303.203 53.1431 313.268 41.9531 301.53C30.7631 289.791 25.1744 260.087 27.4149 233.805C27.4149 233.805 8.39566 231.012 0 219.828L27.4149 163.351Z" fill="#FFC845"/>
<path d="M37.7813 166.085C21.4339 128.454 35.735 50.533 120.553 23.49C206.9 -4.01135 276.899 65.7619 280.98 123.309C285.061 180.855 242.664 233.314 242.664 233.314V328.297L101.136 370.695V293.462C101.136 293.462 61.2792 302.629 51.0592 291.938C40.8392 281.247 35.735 254.192 37.7813 230.254C37.7813 230.254 20.4108 227.711 12.7429 217.524L37.7813 166.085Z" fill="#0CD4CA"/>
<path d="M48.8883 168.675C34.2034 134.535 47.0501 63.8444 123.242 39.3106C200.808 14.3609 263.689 77.6603 267.355 129.868C271.021 182.075 232.935 229.666 232.935 229.666V315.836L105.8 354.301V284.233C105.8 284.233 69.9966 292.55 60.816 282.851C51.6353 273.152 47.0501 248.607 48.8883 226.891C48.8883 226.891 33.2843 224.583 26.3962 215.341L48.8883 168.675Z" fill="#D3B7EA"/>
<path d="M58.5143 171.265C45.2702 140.617 56.8565 77.1557 125.573 55.131C195.529 32.733 252.24 89.5587 255.547 136.427C258.853 183.294 224.504 226.019 224.504 226.019V303.376L109.842 337.906V275.005C109.842 275.005 77.5516 282.471 69.2717 273.764C60.9918 265.057 56.8565 243.022 58.5143 223.527C58.5143 223.527 44.4413 221.455 38.229 213.158L58.5143 171.265Z" fill="url(#paint0_linear)"/>
<defs>
<linearGradient id="paint0_linear" x1="147" y1="50.0939" x2="147" y2="337.906" gradientUnits="userSpaceOnUse">
<stop stop-color="#A77BCA"/>
<stop offset="1" stop-color="#A77BCA" stop-opacity="0"/>
</linearGradient>
</defs>
</svg>
