<svg width="497" height="255" viewBox="0 0 497 255" fill="none" xmlns="http://www.w3.org/2000/svg">
<path d="M69.3611 104.768H34.7473V139.479H69.3611V104.768Z" fill="url(#paint0_linear)"/>
<path d="M138.857 104.768H104.243V139.479H138.857V104.768Z" fill="url(#paint1_linear)"/>
<path d="M208.351 104.768H173.738V139.479H208.351V104.768Z" fill="url(#paint2_linear)"/>
<path d="M347.341 104.768H312.728V139.479H347.341V104.768Z" fill="url(#paint3_linear)"/>
<path d="M277.846 104.768H243.232V139.479H277.846V104.768Z" fill="url(#paint4_linear)"/>
<path d="M34.6139 139.612H0V174.323H34.6139V139.612Z" fill="url(#paint5_linear)"/>
<path d="M104.108 139.612H69.4946V174.323H104.108V139.612Z" fill="url(#paint6_linear)"/>
<path d="M173.604 139.612H138.99V174.323H173.604V139.612Z" fill="url(#paint7_linear)"/>
<path d="M312.594 139.612H277.98V174.323H312.594V139.612Z" fill="url(#paint8_linear)"/>
<path d="M243.099 139.612H208.485V174.323H243.099V139.612Z" fill="url(#paint9_linear)"/>
<path d="M69.3611 174.458H34.7473V209.168H69.3611V174.458Z" fill="url(#paint10_linear)"/>
<path d="M138.857 174.458H104.243V209.168H138.857V174.458Z" fill="url(#paint11_linear)"/>
<path d="M208.351 174.458H173.738V209.168H208.351V174.458Z" fill="url(#paint12_linear)"/>
<path d="M347.341 174.458H312.728V209.168H347.341V174.458Z" fill="url(#paint13_linear)"/>
<path d="M277.846 174.458H243.232V209.168H277.846V174.458Z" fill="url(#paint14_linear)"/>
<path d="M34.6139 209.302H0V244.014H34.6139V209.302Z" fill="url(#paint15_linear)"/>
<path d="M104.108 209.302H69.4946V244.014H104.108V209.302Z" fill="url(#paint16_linear)"/>
<path d="M173.604 209.302H138.99V244.014H173.604V209.302Z" fill="url(#paint17_linear)"/>
<path d="M312.594 209.302H277.98V244.014H312.594V209.302Z" fill="url(#paint18_linear)"/>
<path d="M243.099 209.302H208.485V244.014H243.099V209.302Z" fill="url(#paint19_linear)"/>
<path d="M69.3611 35.0769H34.7473V69.7878H69.3611V35.0769Z" fill="url(#paint20_linear)"/>
<path d="M138.857 35.0769H104.243V69.7878H138.857V35.0769Z" fill="url(#paint21_linear)"/>
<path d="M208.351 35.0769H173.738V69.7878H208.351V35.0769Z" fill="url(#paint22_linear)"/>
<path d="M347.341 35.0769H312.728V69.7881H347.341V35.0769Z" fill="url(#paint23_linear)"/>
<path d="M277.846 35.0769H243.232V69.7881H277.846V35.0769Z" fill="url(#paint24_linear)"/>
<path d="M34.6139 69.9219H0V104.633H34.6139V69.9219Z" fill="url(#paint25_linear)"/>
<path d="M104.108 69.9219H69.4946V104.633H104.108V69.9219Z" fill="url(#paint26_linear)"/>
<path d="M173.604 69.9219H138.99V104.633H173.604V69.9219Z" fill="url(#paint27_linear)"/>
<path d="M312.594 69.9219H277.98V104.633H312.594V69.9219Z" fill="url(#paint28_linear)"/>
<path d="M243.099 69.9219H208.485V104.633H243.099V69.9219Z" fill="url(#paint29_linear)"/>
<path d="M34.6139 0.231445H0V34.9426H34.6139V0.231445Z" fill="url(#paint30_linear)"/>
<path d="M104.108 0.231445H69.4946V34.9426H104.108V0.231445Z" fill="url(#paint31_linear)"/>
<path d="M173.604 0.231445H138.99V34.9426H173.604V0.231445Z" fill="url(#paint32_linear)"/>
<path d="M312.594 0.231445H277.98V34.9426H312.594V0.231445Z" fill="url(#paint33_linear)"/>
<path d="M243.099 0.231445H208.485V34.9426H243.099V0.231445Z" fill="url(#paint34_linear)"/>
<path d="M382.088 139.612H347.475V174.323H382.088V139.612Z" fill="url(#paint35_linear)"/>
<path d="M382.088 209.302H347.475V244.014H382.088V209.302Z" fill="url(#paint36_linear)"/>
<path d="M382.088 69.9219H347.475V104.633H382.088V69.9219Z" fill="url(#paint37_linear)"/>
<path d="M382.088 0.231445H347.475V34.9426H382.088V0.231445Z" fill="url(#paint38_linear)"/>
<path d="M184.273 115.243H149.659V149.954H184.273V115.243Z" fill="url(#paint39_linear)"/>
<path d="M253.769 115.243H219.155V149.954H253.769V115.243Z" fill="url(#paint40_linear)"/>
<path d="M323.263 115.243H288.65V149.954H323.263V115.243Z" fill="url(#paint41_linear)"/>
<path d="M462.253 115.243H427.64V149.954H462.253V115.243Z" fill="url(#paint42_linear)"/>
<path d="M392.758 115.243H358.145V149.954H392.758V115.243Z" fill="url(#paint43_linear)"/>
<path d="M149.526 150.088H114.912V184.799H149.526V150.088Z" fill="url(#paint44_linear)"/>
<path d="M219.021 150.088H184.407V184.799H219.021V150.088Z" fill="url(#paint45_linear)"/>
<path d="M288.516 150.088H253.902V184.799H288.516V150.088Z" fill="url(#paint46_linear)"/>
<path d="M427.506 150.088H392.892V184.799H427.506V150.088Z" fill="url(#paint47_linear)"/>
<path d="M358.011 150.088H323.397V184.799H358.011V150.088Z" fill="url(#paint48_linear)"/>
<path d="M184.273 184.933H149.659V219.644H184.273V184.933Z" fill="url(#paint49_linear)"/>
<path d="M253.769 184.933H219.155V219.644H253.769V184.933Z" fill="url(#paint50_linear)"/>
<path d="M323.263 184.933H288.65V219.644H323.263V184.933Z" fill="url(#paint51_linear)"/>
<path d="M462.253 184.933H427.64V219.644H462.253V184.933Z" fill="url(#paint52_linear)"/>
<path d="M392.758 184.933H358.145V219.644H392.758V184.933Z" fill="url(#paint53_linear)"/>
<path d="M149.526 219.778H114.912V254.489H149.526V219.778Z" fill="url(#paint54_linear)"/>
<path d="M219.021 219.778H184.407V254.489H219.021V219.778Z" fill="url(#paint55_linear)"/>
<path d="M288.516 219.778H253.902V254.489H288.516V219.778Z" fill="url(#paint56_linear)"/>
<path d="M427.506 219.778H392.892V254.489H427.506V219.778Z" fill="url(#paint57_linear)"/>
<path d="M358.011 219.778H323.397V254.489H358.011V219.778Z" fill="url(#paint58_linear)"/>
<path d="M184.273 45.5525H149.659V80.2634H184.273V45.5525Z" fill="url(#paint59_linear)"/>
<path d="M253.769 45.5525H219.155V80.2634H253.769V45.5525Z" fill="url(#paint60_linear)"/>
<path d="M323.263 45.5525H288.65V80.2634H323.263V45.5525Z" fill="url(#paint61_linear)"/>
<path d="M462.253 45.5525H427.64V80.2639H462.253V45.5525Z" fill="url(#paint62_linear)"/>
<path d="M392.758 45.5525H358.145V80.2639H392.758V45.5525Z" fill="url(#paint63_linear)"/>
<path d="M149.526 80.3975H114.912V115.109H149.526V80.3975Z" fill="url(#paint64_linear)"/>
<path d="M219.021 80.3975H184.407V115.109H219.021V80.3975Z" fill="url(#paint65_linear)"/>
<path d="M288.516 80.3975H253.902V115.109H288.516V80.3975Z" fill="url(#paint66_linear)"/>
<path d="M427.506 80.3975H392.892V115.109H427.506V80.3975Z" fill="url(#paint67_linear)"/>
<path d="M358.011 80.3975H323.397V115.109H358.011V80.3975Z" fill="url(#paint68_linear)"/>
<path d="M149.526 10.707H114.912V45.4182H149.526V10.707Z" fill="url(#paint69_linear)"/>
<path d="M219.021 10.707H184.407V45.4182H219.021V10.707Z" fill="url(#paint70_linear)"/>
<path d="M288.516 10.707H253.902V45.4182H288.516V10.707Z" fill="url(#paint71_linear)"/>
<path d="M427.506 10.707H392.892V45.4182H427.506V10.707Z" fill="url(#paint72_linear)"/>
<path d="M358.011 10.707H323.397V45.4182H358.011V10.707Z" fill="url(#paint73_linear)"/>
<path d="M497 150.088H462.386V184.799H497V150.088Z" fill="url(#paint74_linear)"/>
<path d="M497 219.778H462.386V254.489H497V219.778Z" fill="url(#paint75_linear)"/>
<path d="M497 80.3975H462.386V115.109H497V80.3975Z" fill="url(#paint76_linear)"/>
<path d="M497 10.707H462.386V45.4182H497V10.707Z" fill="url(#paint77_linear)"/>
<path d="M130.734 115.243H96.1204V149.954H130.734V115.243Z" fill="url(#paint78_linear)"/>
<path d="M200.23 115.243H165.616V149.954H200.23V115.243Z" fill="url(#paint79_linear)"/>
<path d="M269.724 115.243H235.111V149.954H269.724V115.243Z" fill="url(#paint80_linear)"/>
<path d="M408.714 115.243H374.101V149.954H408.714V115.243Z" fill="url(#paint81_linear)"/>
<path d="M339.219 115.243H304.605V149.954H339.219V115.243Z" fill="url(#paint82_linear)"/>
<path d="M95.9869 150.088H61.373V184.799H95.9869V150.088Z" fill="url(#paint83_linear)"/>
<path d="M165.482 150.088H130.868V184.799H165.482V150.088Z" fill="url(#paint84_linear)"/>
<path d="M234.977 150.088H200.363V184.799H234.977V150.088Z" fill="url(#paint85_linear)"/>
<path d="M373.967 150.088H339.354V184.799H373.967V150.088Z" fill="url(#paint86_linear)"/>
<path d="M304.472 150.088H269.858V184.799H304.472V150.088Z" fill="url(#paint87_linear)"/>
<path d="M130.734 184.933H96.1204V219.644H130.734V184.933Z" fill="url(#paint88_linear)"/>
<path d="M200.23 184.933H165.616V219.644H200.23V184.933Z" fill="url(#paint89_linear)"/>
<path d="M269.724 184.933H235.111V219.644H269.724V184.933Z" fill="url(#paint90_linear)"/>
<path d="M408.714 184.933H374.101V219.644H408.714V184.933Z" fill="url(#paint91_linear)"/>
<path d="M339.219 184.933H304.605V219.644H339.219V184.933Z" fill="url(#paint92_linear)"/>
<path d="M95.9869 219.778H61.373V254.489H95.9869V219.778Z" fill="url(#paint93_linear)"/>
<path d="M165.482 219.778H130.868V254.489H165.482V219.778Z" fill="url(#paint94_linear)"/>
<path d="M234.977 219.778H200.363V254.489H234.977V219.778Z" fill="url(#paint95_linear)"/>
<path d="M373.967 219.778H339.354V254.489H373.967V219.778Z" fill="url(#paint96_linear)"/>
<path d="M304.472 219.778H269.858V254.489H304.472V219.778Z" fill="url(#paint97_linear)"/>
<path d="M130.734 45.5525H96.1204V80.2634H130.734V45.5525Z" fill="url(#paint98_linear)"/>
<path d="M200.23 45.5525H165.616V80.2634H200.23V45.5525Z" fill="url(#paint99_linear)"/>
<path d="M269.724 45.5525H235.111V80.2634H269.724V45.5525Z" fill="url(#paint100_linear)"/>
<path d="M408.714 45.5525H374.101V80.2639H408.714V45.5525Z" fill="url(#paint101_linear)"/>
<path d="M339.219 45.5525H304.605V80.2639H339.219V45.5525Z" fill="url(#paint102_linear)"/>
<path d="M95.9869 80.3975H61.373V115.109H95.9869V80.3975Z" fill="url(#paint103_linear)"/>
<path d="M165.482 80.3975H130.868V115.109H165.482V80.3975Z" fill="url(#paint104_linear)"/>
<path d="M234.977 80.3975H200.363V115.109H234.977V80.3975Z" fill="url(#paint105_linear)"/>
<path d="M373.967 80.3975H339.354V115.109H373.967V80.3975Z" fill="url(#paint106_linear)"/>
<path d="M304.472 80.3975H269.858V115.109H304.472V80.3975Z" fill="url(#paint107_linear)"/>
<path d="M95.9869 10.707H61.373V45.4182H95.9869V10.707Z" fill="url(#paint108_linear)"/>
<path d="M165.482 10.707H130.868V45.4182H165.482V10.707Z" fill="url(#paint109_linear)"/>
<path d="M234.977 10.707H200.363V45.4182H234.977V10.707Z" fill="url(#paint110_linear)"/>
<path d="M373.967 10.707H339.354V45.4182H373.967V10.707Z" fill="url(#paint111_linear)"/>
<path d="M304.472 10.707H269.858V45.4182H304.472V10.707Z" fill="url(#paint112_linear)"/>
<path d="M443.461 150.088H408.848V184.799H443.461V150.088Z" fill="url(#paint113_linear)"/>
<path d="M443.461 219.778H408.848V254.489H443.461V219.778Z" fill="url(#paint114_linear)"/>
<path d="M443.461 80.3975H408.848V115.109H443.461V80.3975Z" fill="url(#paint115_linear)"/>
<path d="M443.461 10.707H408.848V45.4182H443.461V10.707Z" fill="url(#paint116_linear)"/>
<defs>
<linearGradient id="paint0_linear" x1="52.0542" y1="104.768" x2="52.0542" y2="139.479" gradientUnits="userSpaceOnUse">
<stop stop-color="white"/>
<stop offset="1" stop-color="#FFE5A8" stop-opacity="0"/>
</linearGradient>
<linearGradient id="paint1_linear" x1="121.55" y1="104.768" x2="121.55" y2="139.479" gradientUnits="userSpaceOnUse">
<stop stop-color="white"/>
<stop offset="1" stop-color="#FFE5A8" stop-opacity="0"/>
</linearGradient>
<linearGradient id="paint2_linear" x1="191.044" y1="104.768" x2="191.044" y2="139.479" gradientUnits="userSpaceOnUse">
<stop stop-color="white"/>
<stop offset="1" stop-color="#FFE5A8" stop-opacity="0"/>
</linearGradient>
<linearGradient id="paint3_linear" x1="330.034" y1="104.768" x2="330.034" y2="139.479" gradientUnits="userSpaceOnUse">
<stop stop-color="white"/>
<stop offset="1" stop-color="#FFE5A8" stop-opacity="0"/>
</linearGradient>
<linearGradient id="paint4_linear" x1="260.539" y1="104.768" x2="260.539" y2="139.479" gradientUnits="userSpaceOnUse">
<stop stop-color="white"/>
<stop offset="1" stop-color="#FFE5A8" stop-opacity="0"/>
</linearGradient>
<linearGradient id="paint5_linear" x1="17.3069" y1="139.612" x2="17.3069" y2="174.323" gradientUnits="userSpaceOnUse">
<stop stop-color="white"/>
<stop offset="1" stop-color="#FFE5A8" stop-opacity="0"/>
</linearGradient>
<linearGradient id="paint6_linear" x1="86.8015" y1="139.612" x2="86.8015" y2="174.323" gradientUnits="userSpaceOnUse">
<stop stop-color="white"/>
<stop offset="1" stop-color="#FFE5A8" stop-opacity="0"/>
</linearGradient>
<linearGradient id="paint7_linear" x1="156.297" y1="139.612" x2="156.297" y2="174.323" gradientUnits="userSpaceOnUse">
<stop stop-color="white"/>
<stop offset="1" stop-color="#FFE5A8" stop-opacity="0"/>
</linearGradient>
<linearGradient id="paint8_linear" x1="295.287" y1="139.612" x2="295.287" y2="174.323" gradientUnits="userSpaceOnUse">
<stop stop-color="white"/>
<stop offset="1" stop-color="#FFE5A8" stop-opacity="0"/>
</linearGradient>
<linearGradient id="paint9_linear" x1="225.792" y1="139.612" x2="225.792" y2="174.323" gradientUnits="userSpaceOnUse">
<stop stop-color="white"/>
<stop offset="1" stop-color="#FFE5A8" stop-opacity="0"/>
</linearGradient>
<linearGradient id="paint10_linear" x1="52.0542" y1="174.458" x2="52.0542" y2="209.168" gradientUnits="userSpaceOnUse">
<stop stop-color="white"/>
<stop offset="1" stop-color="#FFE5A8" stop-opacity="0"/>
</linearGradient>
<linearGradient id="paint11_linear" x1="121.55" y1="174.458" x2="121.55" y2="209.168" gradientUnits="userSpaceOnUse">
<stop stop-color="white"/>
<stop offset="1" stop-color="#FFE5A8" stop-opacity="0"/>
</linearGradient>
<linearGradient id="paint12_linear" x1="191.044" y1="174.458" x2="191.044" y2="209.168" gradientUnits="userSpaceOnUse">
<stop stop-color="white"/>
<stop offset="1" stop-color="#FFE5A8" stop-opacity="0"/>
</linearGradient>
<linearGradient id="paint13_linear" x1="330.034" y1="174.458" x2="330.034" y2="209.168" gradientUnits="userSpaceOnUse">
<stop stop-color="white"/>
<stop offset="1" stop-color="#FFE5A8" stop-opacity="0"/>
</linearGradient>
<linearGradient id="paint14_linear" x1="260.539" y1="174.458" x2="260.539" y2="209.168" gradientUnits="userSpaceOnUse">
<stop stop-color="white"/>
<stop offset="1" stop-color="#FFE5A8" stop-opacity="0"/>
</linearGradient>
<linearGradient id="paint15_linear" x1="17.3069" y1="209.302" x2="17.3069" y2="244.014" gradientUnits="userSpaceOnUse">
<stop stop-color="white"/>
<stop offset="1" stop-color="#FFE5A8" stop-opacity="0"/>
</linearGradient>
<linearGradient id="paint16_linear" x1="86.8015" y1="209.302" x2="86.8015" y2="244.014" gradientUnits="userSpaceOnUse">
<stop stop-color="white"/>
<stop offset="1" stop-color="#FFE5A8" stop-opacity="0"/>
</linearGradient>
<linearGradient id="paint17_linear" x1="156.297" y1="209.302" x2="156.297" y2="244.014" gradientUnits="userSpaceOnUse">
<stop stop-color="white"/>
<stop offset="1" stop-color="#FFE5A8" stop-opacity="0"/>
</linearGradient>
<linearGradient id="paint18_linear" x1="295.287" y1="209.302" x2="295.287" y2="244.014" gradientUnits="userSpaceOnUse">
<stop stop-color="white"/>
<stop offset="1" stop-color="#FFE5A8" stop-opacity="0"/>
</linearGradient>
<linearGradient id="paint19_linear" x1="225.792" y1="209.302" x2="225.792" y2="244.014" gradientUnits="userSpaceOnUse">
<stop stop-color="white"/>
<stop offset="1" stop-color="#FFE5A8" stop-opacity="0"/>
</linearGradient>
<linearGradient id="paint20_linear" x1="52.0542" y1="35.0769" x2="52.0542" y2="69.7878" gradientUnits="userSpaceOnUse">
<stop stop-color="white"/>
<stop offset="1" stop-color="#FFE5A8" stop-opacity="0"/>
</linearGradient>
<linearGradient id="paint21_linear" x1="121.55" y1="35.0769" x2="121.55" y2="69.7878" gradientUnits="userSpaceOnUse">
<stop stop-color="white"/>
<stop offset="1" stop-color="#FFE5A8" stop-opacity="0"/>
</linearGradient>
<linearGradient id="paint22_linear" x1="191.044" y1="35.0769" x2="191.044" y2="69.7878" gradientUnits="userSpaceOnUse">
<stop stop-color="white"/>
<stop offset="1" stop-color="#FFE5A8" stop-opacity="0"/>
</linearGradient>
<linearGradient id="paint23_linear" x1="330.034" y1="35.0769" x2="330.034" y2="69.7881" gradientUnits="userSpaceOnUse">
<stop stop-color="white"/>
<stop offset="1" stop-color="#FFE5A8" stop-opacity="0"/>
</linearGradient>
<linearGradient id="paint24_linear" x1="260.539" y1="35.0769" x2="260.539" y2="69.7881" gradientUnits="userSpaceOnUse">
<stop stop-color="white"/>
<stop offset="1" stop-color="#FFE5A8" stop-opacity="0"/>
</linearGradient>
<linearGradient id="paint25_linear" x1="17.3069" y1="69.9219" x2="17.3069" y2="104.633" gradientUnits="userSpaceOnUse">
<stop stop-color="white"/>
<stop offset="1" stop-color="#FFE5A8" stop-opacity="0"/>
</linearGradient>
<linearGradient id="paint26_linear" x1="86.8015" y1="69.9219" x2="86.8015" y2="104.633" gradientUnits="userSpaceOnUse">
<stop stop-color="white"/>
<stop offset="1" stop-color="#FFE5A8" stop-opacity="0"/>
</linearGradient>
<linearGradient id="paint27_linear" x1="156.297" y1="69.9219" x2="156.297" y2="104.633" gradientUnits="userSpaceOnUse">
<stop stop-color="white"/>
<stop offset="1" stop-color="#FFE5A8" stop-opacity="0"/>
</linearGradient>
<linearGradient id="paint28_linear" x1="295.287" y1="69.9219" x2="295.287" y2="104.633" gradientUnits="userSpaceOnUse">
<stop stop-color="white"/>
<stop offset="1" stop-color="#FFE5A8" stop-opacity="0"/>
</linearGradient>
<linearGradient id="paint29_linear" x1="225.792" y1="69.9219" x2="225.792" y2="104.633" gradientUnits="userSpaceOnUse">
<stop stop-color="white"/>
<stop offset="1" stop-color="#FFE5A8" stop-opacity="0"/>
</linearGradient>
<linearGradient id="paint30_linear" x1="17.3069" y1="0.231445" x2="17.3069" y2="34.9426" gradientUnits="userSpaceOnUse">
<stop stop-color="white"/>
<stop offset="1" stop-color="#FFE5A8" stop-opacity="0"/>
</linearGradient>
<linearGradient id="paint31_linear" x1="86.8015" y1="0.231445" x2="86.8015" y2="34.9426" gradientUnits="userSpaceOnUse">
<stop stop-color="white"/>
<stop offset="1" stop-color="#FFE5A8" stop-opacity="0"/>
</linearGradient>
<linearGradient id="paint32_linear" x1="156.297" y1="0.231445" x2="156.297" y2="34.9426" gradientUnits="userSpaceOnUse">
<stop stop-color="white"/>
<stop offset="1" stop-color="#FFE5A8" stop-opacity="0"/>
</linearGradient>
<linearGradient id="paint33_linear" x1="295.287" y1="0.231445" x2="295.287" y2="34.9426" gradientUnits="userSpaceOnUse">
<stop stop-color="white"/>
<stop offset="1" stop-color="#FFE5A8" stop-opacity="0"/>
</linearGradient>
<linearGradient id="paint34_linear" x1="225.792" y1="0.231445" x2="225.792" y2="34.9426" gradientUnits="userSpaceOnUse">
<stop stop-color="white"/>
<stop offset="1" stop-color="#FFE5A8" stop-opacity="0"/>
</linearGradient>
<linearGradient id="paint35_linear" x1="364.781" y1="139.612" x2="364.781" y2="174.323" gradientUnits="userSpaceOnUse">
<stop stop-color="white"/>
<stop offset="1" stop-color="#FFE5A8" stop-opacity="0"/>
</linearGradient>
<linearGradient id="paint36_linear" x1="364.781" y1="209.302" x2="364.781" y2="244.014" gradientUnits="userSpaceOnUse">
<stop stop-color="white"/>
<stop offset="1" stop-color="#FFE5A8" stop-opacity="0"/>
</linearGradient>
<linearGradient id="paint37_linear" x1="364.781" y1="69.9219" x2="364.781" y2="104.633" gradientUnits="userSpaceOnUse">
<stop stop-color="white"/>
<stop offset="1" stop-color="#FFE5A8" stop-opacity="0"/>
</linearGradient>
<linearGradient id="paint38_linear" x1="364.781" y1="0.231445" x2="364.781" y2="34.9426" gradientUnits="userSpaceOnUse">
<stop stop-color="white"/>
<stop offset="1" stop-color="#FFE5A8" stop-opacity="0"/>
</linearGradient>
<linearGradient id="paint39_linear" x1="166.966" y1="115.243" x2="166.966" y2="149.954" gradientUnits="userSpaceOnUse">
<stop stop-color="white"/>
<stop offset="1" stop-color="#FFE5A8" stop-opacity="0"/>
</linearGradient>
<linearGradient id="paint40_linear" x1="236.462" y1="115.243" x2="236.462" y2="149.954" gradientUnits="userSpaceOnUse">
<stop stop-color="white"/>
<stop offset="1" stop-color="#FFE5A8" stop-opacity="0"/>
</linearGradient>
<linearGradient id="paint41_linear" x1="305.956" y1="115.243" x2="305.956" y2="149.954" gradientUnits="userSpaceOnUse">
<stop stop-color="white"/>
<stop offset="1" stop-color="#FFE5A8" stop-opacity="0"/>
</linearGradient>
<linearGradient id="paint42_linear" x1="444.946" y1="115.243" x2="444.946" y2="149.954" gradientUnits="userSpaceOnUse">
<stop stop-color="white"/>
<stop offset="1" stop-color="#FFE5A8" stop-opacity="0"/>
</linearGradient>
<linearGradient id="paint43_linear" x1="375.451" y1="115.243" x2="375.451" y2="149.954" gradientUnits="userSpaceOnUse">
<stop stop-color="white"/>
<stop offset="1" stop-color="#FFE5A8" stop-opacity="0"/>
</linearGradient>
<linearGradient id="paint44_linear" x1="132.219" y1="150.088" x2="132.219" y2="184.799" gradientUnits="userSpaceOnUse">
<stop stop-color="white"/>
<stop offset="1" stop-color="#FFE5A8" stop-opacity="0"/>
</linearGradient>
<linearGradient id="paint45_linear" x1="201.714" y1="150.088" x2="201.714" y2="184.799" gradientUnits="userSpaceOnUse">
<stop stop-color="white"/>
<stop offset="1" stop-color="#FFE5A8" stop-opacity="0"/>
</linearGradient>
<linearGradient id="paint46_linear" x1="271.209" y1="150.088" x2="271.209" y2="184.799" gradientUnits="userSpaceOnUse">
<stop stop-color="white"/>
<stop offset="1" stop-color="#FFE5A8" stop-opacity="0"/>
</linearGradient>
<linearGradient id="paint47_linear" x1="410.199" y1="150.088" x2="410.199" y2="184.799" gradientUnits="userSpaceOnUse">
<stop stop-color="white"/>
<stop offset="1" stop-color="#FFE5A8" stop-opacity="0"/>
</linearGradient>
<linearGradient id="paint48_linear" x1="340.704" y1="150.088" x2="340.704" y2="184.799" gradientUnits="userSpaceOnUse">
<stop stop-color="white"/>
<stop offset="1" stop-color="#FFE5A8" stop-opacity="0"/>
</linearGradient>
<linearGradient id="paint49_linear" x1="166.966" y1="184.933" x2="166.966" y2="219.644" gradientUnits="userSpaceOnUse">
<stop stop-color="white"/>
<stop offset="1" stop-color="#FFE5A8" stop-opacity="0"/>
</linearGradient>
<linearGradient id="paint50_linear" x1="236.462" y1="184.933" x2="236.462" y2="219.644" gradientUnits="userSpaceOnUse">
<stop stop-color="white"/>
<stop offset="1" stop-color="#FFE5A8" stop-opacity="0"/>
</linearGradient>
<linearGradient id="paint51_linear" x1="305.956" y1="184.933" x2="305.956" y2="219.644" gradientUnits="userSpaceOnUse">
<stop stop-color="white"/>
<stop offset="1" stop-color="#FFE5A8" stop-opacity="0"/>
</linearGradient>
<linearGradient id="paint52_linear" x1="444.946" y1="184.933" x2="444.946" y2="219.644" gradientUnits="userSpaceOnUse">
<stop stop-color="white"/>
<stop offset="1" stop-color="#FFE5A8" stop-opacity="0"/>
</linearGradient>
<linearGradient id="paint53_linear" x1="375.451" y1="184.933" x2="375.451" y2="219.644" gradientUnits="userSpaceOnUse">
<stop stop-color="white"/>
<stop offset="1" stop-color="#FFE5A8" stop-opacity="0"/>
</linearGradient>
<linearGradient id="paint54_linear" x1="132.219" y1="219.778" x2="132.219" y2="254.489" gradientUnits="userSpaceOnUse">
<stop stop-color="white"/>
<stop offset="1" stop-color="#FFE5A8" stop-opacity="0"/>
</linearGradient>
<linearGradient id="paint55_linear" x1="201.714" y1="219.778" x2="201.714" y2="254.489" gradientUnits="userSpaceOnUse">
<stop stop-color="white"/>
<stop offset="1" stop-color="#FFE5A8" stop-opacity="0"/>
</linearGradient>
<linearGradient id="paint56_linear" x1="271.209" y1="219.778" x2="271.209" y2="254.489" gradientUnits="userSpaceOnUse">
<stop stop-color="white"/>
<stop offset="1" stop-color="#FFE5A8" stop-opacity="0"/>
</linearGradient>
<linearGradient id="paint57_linear" x1="410.199" y1="219.778" x2="410.199" y2="254.489" gradientUnits="userSpaceOnUse">
<stop stop-color="white"/>
<stop offset="1" stop-color="#FFE5A8" stop-opacity="0"/>
</linearGradient>
<linearGradient id="paint58_linear" x1="340.704" y1="219.778" x2="340.704" y2="254.489" gradientUnits="userSpaceOnUse">
<stop stop-color="white"/>
<stop offset="1" stop-color="#FFE5A8" stop-opacity="0"/>
</linearGradient>
<linearGradient id="paint59_linear" x1="166.966" y1="45.5525" x2="166.966" y2="80.2634" gradientUnits="userSpaceOnUse">
<stop stop-color="white"/>
<stop offset="1" stop-color="#FFE5A8" stop-opacity="0"/>
</linearGradient>
<linearGradient id="paint60_linear" x1="236.462" y1="45.5525" x2="236.462" y2="80.2634" gradientUnits="userSpaceOnUse">
<stop stop-color="white"/>
<stop offset="1" stop-color="#FFE5A8" stop-opacity="0"/>
</linearGradient>
<linearGradient id="paint61_linear" x1="305.956" y1="45.5525" x2="305.956" y2="80.2634" gradientUnits="userSpaceOnUse">
<stop stop-color="white"/>
<stop offset="1" stop-color="#FFE5A8" stop-opacity="0"/>
</linearGradient>
<linearGradient id="paint62_linear" x1="444.946" y1="45.5525" x2="444.946" y2="80.2639" gradientUnits="userSpaceOnUse">
<stop stop-color="white"/>
<stop offset="1" stop-color="#FFE5A8" stop-opacity="0"/>
</linearGradient>
<linearGradient id="paint63_linear" x1="375.451" y1="45.5525" x2="375.451" y2="80.2639" gradientUnits="userSpaceOnUse">
<stop stop-color="white"/>
<stop offset="1" stop-color="#FFE5A8" stop-opacity="0"/>
</linearGradient>
<linearGradient id="paint64_linear" x1="132.219" y1="80.3975" x2="132.219" y2="115.109" gradientUnits="userSpaceOnUse">
<stop stop-color="white"/>
<stop offset="1" stop-color="#FFE5A8" stop-opacity="0"/>
</linearGradient>
<linearGradient id="paint65_linear" x1="201.714" y1="80.3975" x2="201.714" y2="115.109" gradientUnits="userSpaceOnUse">
<stop stop-color="white"/>
<stop offset="1" stop-color="#FFE5A8" stop-opacity="0"/>
</linearGradient>
<linearGradient id="paint66_linear" x1="271.209" y1="80.3975" x2="271.209" y2="115.109" gradientUnits="userSpaceOnUse">
<stop stop-color="white"/>
<stop offset="1" stop-color="#FFE5A8" stop-opacity="0"/>
</linearGradient>
<linearGradient id="paint67_linear" x1="410.199" y1="80.3975" x2="410.199" y2="115.109" gradientUnits="userSpaceOnUse">
<stop stop-color="white"/>
<stop offset="1" stop-color="#FFE5A8" stop-opacity="0"/>
</linearGradient>
<linearGradient id="paint68_linear" x1="340.704" y1="80.3975" x2="340.704" y2="115.109" gradientUnits="userSpaceOnUse">
<stop stop-color="white"/>
<stop offset="1" stop-color="#FFE5A8" stop-opacity="0"/>
</linearGradient>
<linearGradient id="paint69_linear" x1="132.219" y1="10.707" x2="132.219" y2="45.4182" gradientUnits="userSpaceOnUse">
<stop stop-color="white"/>
<stop offset="1" stop-color="#FFE5A8" stop-opacity="0"/>
</linearGradient>
<linearGradient id="paint70_linear" x1="201.714" y1="10.707" x2="201.714" y2="45.4182" gradientUnits="userSpaceOnUse">
<stop stop-color="white"/>
<stop offset="1" stop-color="#FFE5A8" stop-opacity="0"/>
</linearGradient>
<linearGradient id="paint71_linear" x1="271.209" y1="10.707" x2="271.209" y2="45.4182" gradientUnits="userSpaceOnUse">
<stop stop-color="white"/>
<stop offset="1" stop-color="#FFE5A8" stop-opacity="0"/>
</linearGradient>
<linearGradient id="paint72_linear" x1="410.199" y1="10.707" x2="410.199" y2="45.4182" gradientUnits="userSpaceOnUse">
<stop stop-color="white"/>
<stop offset="1" stop-color="#FFE5A8" stop-opacity="0"/>
</linearGradient>
<linearGradient id="paint73_linear" x1="340.704" y1="10.707" x2="340.704" y2="45.4182" gradientUnits="userSpaceOnUse">
<stop stop-color="white"/>
<stop offset="1" stop-color="#FFE5A8" stop-opacity="0"/>
</linearGradient>
<linearGradient id="paint74_linear" x1="479.693" y1="150.088" x2="479.693" y2="184.799" gradientUnits="userSpaceOnUse">
<stop stop-color="white"/>
<stop offset="1" stop-color="#FFE5A8" stop-opacity="0"/>
</linearGradient>
<linearGradient id="paint75_linear" x1="479.693" y1="219.778" x2="479.693" y2="254.489" gradientUnits="userSpaceOnUse">
<stop stop-color="white"/>
<stop offset="1" stop-color="#FFE5A8" stop-opacity="0"/>
</linearGradient>
<linearGradient id="paint76_linear" x1="479.693" y1="80.3975" x2="479.693" y2="115.109" gradientUnits="userSpaceOnUse">
<stop stop-color="white"/>
<stop offset="1" stop-color="#FFE5A8" stop-opacity="0"/>
</linearGradient>
<linearGradient id="paint77_linear" x1="479.693" y1="10.707" x2="479.693" y2="45.4182" gradientUnits="userSpaceOnUse">
<stop stop-color="white"/>
<stop offset="1" stop-color="#FFE5A8" stop-opacity="0"/>
</linearGradient>
<linearGradient id="paint78_linear" x1="113.427" y1="115.243" x2="113.427" y2="149.954" gradientUnits="userSpaceOnUse">
<stop stop-color="#0CD4CA"/>
<stop offset="1" stop-color="#0CD4CA" stop-opacity="0"/>
</linearGradient>
<linearGradient id="paint79_linear" x1="182.923" y1="115.243" x2="182.923" y2="149.954" gradientUnits="userSpaceOnUse">
<stop stop-color="#0CD4CA"/>
<stop offset="1" stop-color="#0CD4CA" stop-opacity="0"/>
</linearGradient>
<linearGradient id="paint80_linear" x1="252.417" y1="115.243" x2="252.417" y2="149.954" gradientUnits="userSpaceOnUse">
<stop stop-color="#0CD4CA"/>
<stop offset="1" stop-color="#0CD4CA" stop-opacity="0"/>
</linearGradient>
<linearGradient id="paint81_linear" x1="391.407" y1="115.243" x2="391.407" y2="149.954" gradientUnits="userSpaceOnUse">
<stop stop-color="#0CD4CA"/>
<stop offset="1" stop-color="#0CD4CA" stop-opacity="0"/>
</linearGradient>
<linearGradient id="paint82_linear" x1="321.912" y1="115.243" x2="321.912" y2="149.954" gradientUnits="userSpaceOnUse">
<stop stop-color="#0CD4CA"/>
<stop offset="1" stop-color="#0CD4CA" stop-opacity="0"/>
</linearGradient>
<linearGradient id="paint83_linear" x1="78.68" y1="150.088" x2="78.68" y2="184.799" gradientUnits="userSpaceOnUse">
<stop stop-color="#0CD4CA"/>
<stop offset="1" stop-color="#0CD4CA" stop-opacity="0"/>
</linearGradient>
<linearGradient id="paint84_linear" x1="148.175" y1="150.088" x2="148.175" y2="184.799" gradientUnits="userSpaceOnUse">
<stop stop-color="#0CD4CA"/>
<stop offset="1" stop-color="#0CD4CA" stop-opacity="0"/>
</linearGradient>
<linearGradient id="paint85_linear" x1="217.67" y1="150.088" x2="217.67" y2="184.799" gradientUnits="userSpaceOnUse">
<stop stop-color="#0CD4CA"/>
<stop offset="1" stop-color="#0CD4CA" stop-opacity="0"/>
</linearGradient>
<linearGradient id="paint86_linear" x1="356.66" y1="150.088" x2="356.66" y2="184.799" gradientUnits="userSpaceOnUse">
<stop stop-color="#0CD4CA"/>
<stop offset="1" stop-color="#0CD4CA" stop-opacity="0"/>
</linearGradient>
<linearGradient id="paint87_linear" x1="287.165" y1="150.088" x2="287.165" y2="184.799" gradientUnits="userSpaceOnUse">
<stop stop-color="#0CD4CA"/>
<stop offset="1" stop-color="#0CD4CA" stop-opacity="0"/>
</linearGradient>
<linearGradient id="paint88_linear" x1="113.427" y1="184.933" x2="113.427" y2="219.644" gradientUnits="userSpaceOnUse">
<stop stop-color="#0CD4CA"/>
<stop offset="1" stop-color="#0CD4CA" stop-opacity="0"/>
</linearGradient>
<linearGradient id="paint89_linear" x1="182.923" y1="184.933" x2="182.923" y2="219.644" gradientUnits="userSpaceOnUse">
<stop stop-color="#0CD4CA"/>
<stop offset="1" stop-color="#0CD4CA" stop-opacity="0"/>
</linearGradient>
<linearGradient id="paint90_linear" x1="252.417" y1="184.933" x2="252.417" y2="219.644" gradientUnits="userSpaceOnUse">
<stop stop-color="#0CD4CA"/>
<stop offset="1" stop-color="#0CD4CA" stop-opacity="0"/>
</linearGradient>
<linearGradient id="paint91_linear" x1="391.407" y1="184.933" x2="391.407" y2="219.644" gradientUnits="userSpaceOnUse">
<stop stop-color="#0CD4CA"/>
<stop offset="1" stop-color="#0CD4CA" stop-opacity="0"/>
</linearGradient>
<linearGradient id="paint92_linear" x1="321.912" y1="184.933" x2="321.912" y2="219.644" gradientUnits="userSpaceOnUse">
<stop stop-color="#0CD4CA"/>
<stop offset="1" stop-color="#0CD4CA" stop-opacity="0"/>
</linearGradient>
<linearGradient id="paint93_linear" x1="78.68" y1="219.778" x2="78.68" y2="254.489" gradientUnits="userSpaceOnUse">
<stop stop-color="#0CD4CA"/>
<stop offset="1" stop-color="#0CD4CA" stop-opacity="0"/>
</linearGradient>
<linearGradient id="paint94_linear" x1="148.175" y1="219.778" x2="148.175" y2="254.489" gradientUnits="userSpaceOnUse">
<stop stop-color="#0CD4CA"/>
<stop offset="1" stop-color="#0CD4CA" stop-opacity="0"/>
</linearGradient>
<linearGradient id="paint95_linear" x1="217.67" y1="219.778" x2="217.67" y2="254.489" gradientUnits="userSpaceOnUse">
<stop stop-color="#0CD4CA"/>
<stop offset="1" stop-color="#0CD4CA" stop-opacity="0"/>
</linearGradient>
<linearGradient id="paint96_linear" x1="356.66" y1="219.778" x2="356.66" y2="254.489" gradientUnits="userSpaceOnUse">
<stop stop-color="#0CD4CA"/>
<stop offset="1" stop-color="#0CD4CA" stop-opacity="0"/>
</linearGradient>
<linearGradient id="paint97_linear" x1="287.165" y1="219.778" x2="287.165" y2="254.489" gradientUnits="userSpaceOnUse">
<stop stop-color="#0CD4CA"/>
<stop offset="1" stop-color="#0CD4CA" stop-opacity="0"/>
</linearGradient>
<linearGradient id="paint98_linear" x1="113.427" y1="45.5525" x2="113.427" y2="80.2634" gradientUnits="userSpaceOnUse">
<stop stop-color="#0CD4CA"/>
<stop offset="1" stop-color="#0CD4CA" stop-opacity="0"/>
</linearGradient>
<linearGradient id="paint99_linear" x1="182.923" y1="45.5525" x2="182.923" y2="80.2634" gradientUnits="userSpaceOnUse">
<stop stop-color="#0CD4CA"/>
<stop offset="1" stop-color="#0CD4CA" stop-opacity="0"/>
</linearGradient>
<linearGradient id="paint100_linear" x1="252.417" y1="45.5525" x2="252.417" y2="80.2634" gradientUnits="userSpaceOnUse">
<stop stop-color="#0CD4CA"/>
<stop offset="1" stop-color="#0CD4CA" stop-opacity="0"/>
</linearGradient>
<linearGradient id="paint101_linear" x1="391.407" y1="45.5525" x2="391.407" y2="80.2639" gradientUnits="userSpaceOnUse">
<stop stop-color="#0CD4CA"/>
<stop offset="1" stop-color="#0CD4CA" stop-opacity="0"/>
</linearGradient>
<linearGradient id="paint102_linear" x1="321.912" y1="45.5525" x2="321.912" y2="80.2639" gradientUnits="userSpaceOnUse">
<stop stop-color="#0CD4CA"/>
<stop offset="1" stop-color="#0CD4CA" stop-opacity="0"/>
</linearGradient>
<linearGradient id="paint103_linear" x1="78.68" y1="80.3975" x2="78.68" y2="115.109" gradientUnits="userSpaceOnUse">
<stop stop-color="#0CD4CA"/>
<stop offset="1" stop-color="#0CD4CA" stop-opacity="0"/>
</linearGradient>
<linearGradient id="paint104_linear" x1="148.175" y1="80.3975" x2="148.175" y2="115.109" gradientUnits="userSpaceOnUse">
<stop stop-color="#0CD4CA"/>
<stop offset="1" stop-color="#0CD4CA" stop-opacity="0"/>
</linearGradient>
<linearGradient id="paint105_linear" x1="217.67" y1="80.3975" x2="217.67" y2="115.109" gradientUnits="userSpaceOnUse">
<stop stop-color="#0CD4CA"/>
<stop offset="1" stop-color="#0CD4CA" stop-opacity="0"/>
</linearGradient>
<linearGradient id="paint106_linear" x1="356.66" y1="80.3975" x2="356.66" y2="115.109" gradientUnits="userSpaceOnUse">
<stop stop-color="#0CD4CA"/>
<stop offset="1" stop-color="#0CD4CA" stop-opacity="0"/>
</linearGradient>
<linearGradient id="paint107_linear" x1="287.165" y1="80.3975" x2="287.165" y2="115.109" gradientUnits="userSpaceOnUse">
<stop stop-color="#0CD4CA"/>
<stop offset="1" stop-color="#0CD4CA" stop-opacity="0"/>
</linearGradient>
<linearGradient id="paint108_linear" x1="78.68" y1="10.707" x2="78.68" y2="45.4182" gradientUnits="userSpaceOnUse">
<stop stop-color="#0CD4CA"/>
<stop offset="1" stop-color="#0CD4CA" stop-opacity="0"/>
</linearGradient>
<linearGradient id="paint109_linear" x1="148.175" y1="10.707" x2="148.175" y2="45.4182" gradientUnits="userSpaceOnUse">
<stop stop-color="#0CD4CA"/>
<stop offset="1" stop-color="#0CD4CA" stop-opacity="0"/>
</linearGradient>
<linearGradient id="paint110_linear" x1="217.67" y1="10.707" x2="217.67" y2="45.4182" gradientUnits="userSpaceOnUse">
<stop stop-color="#0CD4CA"/>
<stop offset="1" stop-color="#0CD4CA" stop-opacity="0"/>
</linearGradient>
<linearGradient id="paint111_linear" x1="356.66" y1="10.707" x2="356.66" y2="45.4182" gradientUnits="userSpaceOnUse">
<stop stop-color="#0CD4CA"/>
<stop offset="1" stop-color="#0CD4CA" stop-opacity="0"/>
</linearGradient>
<linearGradient id="paint112_linear" x1="287.165" y1="10.707" x2="287.165" y2="45.4182" gradientUnits="userSpaceOnUse">
<stop stop-color="#0CD4CA"/>
<stop offset="1" stop-color="#0CD4CA" stop-opacity="0"/>
</linearGradient>
<linearGradient id="paint113_linear" x1="426.155" y1="150.088" x2="426.155" y2="184.799" gradientUnits="userSpaceOnUse">
<stop stop-color="#0CD4CA"/>
<stop offset="1" stop-color="#0CD4CA" stop-opacity="0"/>
</linearGradient>
<linearGradient id="paint114_linear" x1="426.155" y1="219.778" x2="426.155" y2="254.489" gradientUnits="userSpaceOnUse">
<stop stop-color="#0CD4CA"/>
<stop offset="1" stop-color="#0CD4CA" stop-opacity="0"/>
</linearGradient>
<linearGradient id="paint115_linear" x1="426.155" y1="80.3975" x2="426.155" y2="115.109" gradientUnits="userSpaceOnUse">
<stop stop-color="#0CD4CA"/>
<stop offset="1" stop-color="#0CD4CA" stop-opacity="0"/>
</linearGradient>
<linearGradient id="paint116_linear" x1="426.155" y1="10.707" x2="426.155" y2="45.4182" gradientUnits="userSpaceOnUse">
<stop stop-color="#0CD4CA"/>
<stop offset="1" stop-color="#0CD4CA" stop-opacity="0"/>
</linearGradient>
</defs>
</svg>
