<svg width="459" height="418" viewBox="0 0 459 418" fill="none" xmlns="http://www.w3.org/2000/svg">
<path d="M37.2269 -4.131e-05L37.2269 105.449C37.2269 116.495 46.1812 125.449 57.2269 125.449L83.4471 125.449C94.4928 125.449 103.447 134.403 103.447 145.449L103.447 174.739C103.447 185.784 112.401 194.739 123.447 194.739L150.775 194.739C161.821 194.739 170.775 185.784 170.775 174.739L170.775 112.253C170.775 101.208 179.73 92.2534 190.775 92.2534L224.417 92.2534C235.462 92.2534 244.417 101.208 244.417 112.253L244.417 142.009C244.417 153.055 253.371 162.009 264.417 162.009L438 162.009C449.046 162.009 458 170.963 458 182.009L458 208.696C458 219.742 449.046 228.696 438 228.696L28 228.696C16.9543 228.696 8.00002 237.65 8.00002 248.696L8.00002 254.04C8.00002 265.086 16.9543 274.04 28 274.04L276.51 274.04C287.556 274.04 296.51 265.086 296.51 254.04L296.51 134.969C296.51 123.923 305.465 114.969 316.51 114.969L345.912 114.969C356.958 114.969 365.912 123.923 365.912 134.969L365.912 293.408C365.912 304.453 356.958 313.408 345.912 313.408L269.349 313.408C259.633 313.408 251.757 321.284 251.757 331V331" stroke="white" stroke-width="2"/>
<path d="M201 92.5001C201 96.6422 204.358 100 208.5 100C212.642 100 216 96.6422 216 92.5001C216 88.3579 212.642 85.0001 208.5 85.0001C204.358 85.0001 201 88.3579 201 92.5001Z" fill="#FF585D" stroke="white" stroke-width="2" stroke-miterlimit="10"/>
<path d="M97 164.066C97 167.389 99.6863 170.083 103 170.083C106.314 170.083 109 167.389 109 164.066C109 160.743 106.314 158.049 103 158.049C99.6863 158.049 97 160.743 97 164.066Z" fill="#FF585D" stroke="white" stroke-width="2" stroke-miterlimit="10"/>
<path d="M1 252.5C1 256.09 3.91015 259 7.5 259C11.0898 259 14 256.09 14 252.5C14 248.91 11.0898 246 7.5 246C3.91015 246 1 248.91 1 252.5Z" fill="#FF585D" stroke="white" stroke-width="2" stroke-miterlimit="10"/>
<path d="M401 228.5C401 232.09 403.91 235 407.5 235C411.09 235 414 232.09 414 228.5C414 224.91 411.09 222 407.5 222C403.91 222 401 224.91 401 228.5Z" fill="#FF585D" stroke="white" stroke-width="2" stroke-miterlimit="10"/>
<path d="M325 115.5C325 119.09 327.91 122 331.5 122C335.09 122 338 119.09 338 115.5C338 111.91 335.09 109 331.5 109C327.91 109 325 111.91 325 115.5Z" fill="#FF585D" stroke="white" stroke-width="2" stroke-miterlimit="10"/>
<path d="M235 229C235 232.866 238.134 236 242 236C245.866 236 249 232.866 249 229C249 225.134 245.866 222 242 222C238.134 222 235 225.134 235 229Z" fill="#FF585D" stroke="white" stroke-width="2" stroke-miterlimit="10"/>
<path d="M53 228.513C53 231.005 55.0147 233.026 57.5 233.026C59.9853 233.026 62 231.005 62 228.513C62 226.021 59.9853 224 57.5 224C55.0147 224 53 226.021 53 228.513Z" fill="#FF585D" stroke="white" stroke-width="2" stroke-miterlimit="10"/>
<path d="M288 313.5C288 315.985 290.015 318 292.5 318C294.985 318 297 315.985 297 313.5C297 311.015 294.985 309 292.5 309C290.015 309 288 311.015 288 313.5Z" fill="#FF585D" stroke="white" stroke-width="2" stroke-miterlimit="10"/>
<path d="M327 313.5C327 315.985 329.015 318 331.5 318C333.985 318 336 315.985 336 313.5C336 311.015 333.985 309 331.5 309C329.015 309 327 311.015 327 313.5Z" fill="#FF585D" stroke="white" stroke-width="2" stroke-miterlimit="10"/>
<path d="M328 161C328 163.209 329.791 165 332 165C334.209 165 336 163.209 336 161C336 158.791 334.209 157 332 157C329.791 157 328 158.791 328 161Z" fill="#FF585D" stroke="white" stroke-width="2" stroke-miterlimit="10"/>
<path d="M31 94.3165C31 97.9063 33.9102 100.816 37.5 100.816C41.0898 100.816 44 97.9063 44 94.3165C44 90.7266 41.0898 87.8165 37.5 87.8165C33.9102 87.8165 31 90.7266 31 94.3165Z" fill="#FF585D" stroke="white" stroke-width="2" stroke-miterlimit="10"/>
<path d="M106.772 236.757L98.427 228.412L106.772 220.068" stroke="white" stroke-width="2" stroke-linecap="square"/>
<path d="M128.56 186.691L136.905 195.035L128.56 203.38" stroke="white" stroke-width="2" stroke-linecap="square"/>
<path d="M263.001 154.239L271.346 162.584L263.001 170.929" stroke="white" stroke-width="2" stroke-linecap="square"/>
<path d="M405.786 154.239L414.131 162.584L405.786 170.929" stroke="white" stroke-width="2" stroke-linecap="square"/>
<path d="M288.498 145.695L296.843 137.351L305.187 145.695" stroke="white" stroke-width="2" stroke-linecap="square"/>
<path d="M374.263 190.862L365.918 199.207L357.573 190.862" stroke="white" stroke-width="2" stroke-linecap="square"/>
<path d="M205.516 236.757L197.171 228.412L205.516 220.068" stroke="white" stroke-width="2" stroke-linecap="square"/>
<path d="M258.829 265.501L267.173 273.845L258.829 282.19" stroke="white" stroke-width="2" stroke-linecap="square"/>
<path d="M160.084 265.501L168.429 273.845L160.084 282.19" stroke="white" stroke-width="2" stroke-linecap="square"/>
<path d="M61.34 265.501L69.6846 273.845L61.34 282.19" stroke="white" stroke-width="2" stroke-linecap="square"/>
<path d="M162.866 150.994L171.21 142.65L179.555 150.994" stroke="white" stroke-width="2" stroke-linecap="square"/>
<path fill-rule="evenodd" clip-rule="evenodd" d="M252.924 348.709L253.411 349.205L253.415 349.201L278.246 374.102L253.19 399.228L252.96 398.992L252.943 399.01L227.764 373.759L252.834 348.618C245.635 341.399 234.137 341.222 227.156 348.222C220.573 354.824 220.355 365.455 226.389 372.699L215.12 361.492C208.127 368.484 208.322 379.98 215.552 387.169L223.66 379.062C220.637 385.816 221.84 393.965 227.3 399.441C233.644 405.803 243.583 406.401 250.762 401.288L240.111 412.415C247.032 419.478 258.529 419.399 265.791 412.243L253.637 399.691C260.858 406.466 272.02 406.492 278.854 399.639C285.234 393.24 285.635 383.058 280.16 375.841L291.552 387.169C298.544 380.177 298.349 368.681 291.12 361.492L280.259 372.352C285.671 365.126 285.172 354.901 278.709 348.42C272.992 342.687 264.355 341.635 257.45 345.225L266.561 336.247C259.64 329.184 248.142 329.262 240.88 336.418L252.835 348.618C252.835 348.618 252.835 348.619 252.834 348.619L252.924 348.709Z" fill="url(#paint0_radial)"/>
<path fill-rule="evenodd" clip-rule="evenodd" d="M252.924 348.709L253.411 349.205L253.415 349.201L278.246 374.102L253.19 399.228L252.96 398.992L252.943 399.01L227.764 373.759L252.834 348.618C245.635 341.399 234.137 341.222 227.156 348.222C220.573 354.824 220.355 365.455 226.389 372.699L215.12 361.492C208.127 368.484 208.322 379.98 215.552 387.169L223.66 379.062C220.637 385.816 221.84 393.965 227.3 399.441C233.644 405.803 243.583 406.401 250.762 401.288L240.111 412.415C247.032 419.478 258.529 419.399 265.791 412.243L253.637 399.691C260.858 406.466 272.02 406.492 278.854 399.639C285.234 393.24 285.635 383.058 280.16 375.841L291.552 387.169C298.544 380.177 298.349 368.681 291.12 361.492L280.259 372.352C285.671 365.126 285.172 354.901 278.709 348.42C272.992 342.687 264.355 341.635 257.45 345.225L266.561 336.247C259.64 329.184 248.142 329.262 240.88 336.418L252.835 348.618C252.835 348.618 252.835 348.619 252.834 348.619L252.924 348.709Z" fill="url(#paint1_radial)"/>
<path d="M240.93 361.966C247.274 355.604 257.73 355.713 264.283 362.285C270.837 368.857 270.945 379.342 264.601 385.704C258.257 392.066 247.801 391.958 241.248 385.386C234.694 378.813 234.586 368.329 240.93 361.966Z" fill="url(#paint2_radial)" stroke="#FF585D" stroke-width="2"/>
<defs>
<radialGradient id="paint0_radial" cx="0" cy="0" r="1" gradientUnits="userSpaceOnUse" gradientTransform="translate(253.336 374.331) rotate(90) scale(43.3306 43.3357)">
<stop stop-color="white" stop-opacity="0"/>
<stop offset="1" stop-color="white"/>
</radialGradient>
<radialGradient id="paint1_radial" cx="0" cy="0" r="1" gradientUnits="userSpaceOnUse" gradientTransform="translate(253.336 374.331) rotate(90) scale(43.3306 43.3357)">
<stop offset="0.385417" stop-color="#0CD4CA" stop-opacity="0"/>
<stop offset="1" stop-color="#0CD4CA"/>
</radialGradient>
<radialGradient id="paint2_radial" cx="0" cy="0" r="1" gradientUnits="userSpaceOnUse" gradientTransform="translate(252.766 373.835) rotate(-45.0804) scale(17.3117 17.7613)">
<stop stop-color="#FFA6A8" stop-opacity="0"/>
<stop offset="0.984375" stop-color="#FFA6A8"/>
</radialGradient>
</defs>
</svg>
