<svg width="468" height="249" viewBox="0 0 468 249" fill="none" xmlns="http://www.w3.org/2000/svg">
<path d="M0 248.697C0 248.697 34.5701 122.859 55.6231 114.453C69.7981 108.812 92.5139 173.851 106.796 169.482C124.309 164.117 139.776 73.3428 157.228 67.3883C174.908 61.3785 203.964 127.228 221.751 131.376C231.01 133.552 248.785 114.029 258.091 114.453C263.092 114.674 272.601 128.261 277.374 125.293C286.31 119.762 293.367 75.3523 301.848 67.3883C305.222 64.2359 313.14 69.6558 316.681 67.3883C330.437 58.6317 350.019 -5.33805 364.146 0.358378C384.386 8.52511 395.905 110.01 409.386 142.05C422.198 172.45 468 248.697 468 248.697H0Z" fill="url(#paint0_linear)"/>
<path d="M0 248.697C0 248.697 32.1307 181.673 46.1026 172.584C61.833 162.356 95.6862 189.11 111.787 181.765C119.348 178.386 131.573 154.221 139.181 151.357C154.576 145.334 185.834 169.719 201.385 167.002C214.256 164.761 238.073 135.565 250.968 136.63C258.397 137.236 271.388 159.454 278.805 158.665C299.141 156.627 331.977 91.9534 351.882 83.2128C366.153 76.9328 397.231 74.4538 410.162 88.7216C431.252 112.005 468 248.477 468 248.477L0 248.697Z" fill="url(#paint1_linear)"/>
<path opacity="0.92" d="M0 248.697C0 248.697 46.3418 212.695 63.8546 212.482C75.7212 212.34 95.6025 236.262 107.469 235.978C132.889 235.362 174.003 183.799 199.351 181.17C212.055 179.843 235.669 199.526 248.397 198.78C268.218 197.595 302.574 164.353 322.371 162.565C344.693 160.552 367.014 186.878 389.36 188.998C401.932 190.182 420.462 190.608 423.62 192.906C437.173 202.854 468 248.697 468 248.697H0Z" fill="#0CD4CA" fill-opacity="0.81"/>
<defs>
<linearGradient id="paint0_linear" x1="234" y1="0" x2="234" y2="248.697" gradientUnits="userSpaceOnUse">
<stop offset="0.328125" stop-color="#221C35" stop-opacity="0.6"/>
<stop offset="1" stop-color="#5473FF" stop-opacity="0"/>
</linearGradient>
<linearGradient id="paint1_linear" x1="234" y1="78.2192" x2="234" y2="248.697" gradientUnits="userSpaceOnUse">
<stop stop-color="#0CD4CA"/>
<stop offset="1" stop-color="#0CD4CA" stop-opacity="0"/>
</linearGradient>
</defs>
</svg>
